<svg id="Layer_1" data-name="Layer 1" xmlns="http://www.w3.org/2000/svg" viewBox="0 0 1098.33 252.96"><defs><style>.cls-1{fill:none;}.cls-2{fill:#006fff;}.cls-3{fill:#0a305a;}.cls-4{fill:#fff;}</style></defs><title>stat-drk-bk-hz-logoArtboard 1</title><path class="cls-1" d="M15.57,168.69c-.23.42-.46.85-.68,1.27C15.11,169.53,15.34,169.11,15.57,168.69Z"/><path class="cls-1" d="M17.55,165.24l-.69,1.16Z"/><path class="cls-1" d="M21.89,158.76l-.55.75Z"/><path class="cls-1" d="M12,176c-.19.44-.38.89-.56,1.33C11.66,176.91,11.85,176.46,12,176Z"/><path class="cls-1" d="M19.66,161.93l-.65,1Z"/><path class="cls-1" d="M13.73,172.28c-.21.44-.42.88-.63,1.33C13.31,173.17,13.52,172.72,13.73,172.28Z"/><path class="cls-1" d="M24.23,155.72l-.4.49Z"/><path class="cls-1" d="M26.7,152.82l-.2.23Z"/><path class="cls-2" d="M12,176c.34-.81.69-1.61,1.06-2.41.21-.45.42-.89.63-1.33q.56-1.17,1.16-2.32c.22-.43.45-.85.68-1.27q.63-1.16,1.29-2.29l.69-1.16q.71-1.18,1.46-2.33l.65-1q.82-1.22,1.68-2.42l.55-.75q1-1.29,2-2.54l.4-.49q1.11-1.36,2.27-2.68l.2-.23a85.63,85.63,0,0,1,23.37-18.51l1.25-.68A101.17,101.17,0,0,1,82.48,37.36,100.93,100.93,0,0,0,10.19,180.72c.1-.28.22-.56.32-.84.31-.85.63-1.69,1-2.52C11.66,176.9,11.85,176.46,12,176Z"/><path class="cls-3" d="M10.51,179.87c.31-.85.63-1.69,1-2.52C11.15,178.19,10.83,179,10.51,179.87Z"/><path class="cls-3" d="M16.86,166.39q-.66,1.14-1.29,2.29Q16.2,167.53,16.86,166.39Z"/><path class="cls-3" d="M14.89,170q-.6,1.15-1.16,2.32C14.11,171.5,14.49,170.73,14.89,170Z"/><path class="cls-3" d="M26.5,153q-1.16,1.32-2.27,2.68Q25.34,154.36,26.5,153Z"/><path class="cls-3" d="M19,162.91q-.75,1.15-1.46,2.33Q18.26,164.06,19,162.91Z"/><path class="cls-3" d="M21.34,159.51q-.86,1.19-1.68,2.42Q20.48,160.7,21.34,159.51Z"/><path class="cls-3" d="M26.7,152.82a86,86,0,0,1,24.63-19.14v0l-1.25.68A85.63,85.63,0,0,0,26.7,152.82Z"/><path class="cls-3" d="M13.1,173.61c-.37.8-.72,1.6-1.06,2.41C12.38,175.21,12.73,174.4,13.1,173.61Z"/><path class="cls-3" d="M23.84,156.22q-1,1.25-2,2.54Q22.84,157.47,23.84,156.22Z"/><path class="cls-4" d="M182.89,212.06l-5-2-5.77-2.28-21.24-8.72L140,194.54l-11.17-4.65.75,19.86A59,59,0,0,1,109.78,205c-.35-.15-1-.3-1-.45q-5.85-2.69-11.71-6.1a93.09,93.09,0,0,1-31.21-30.5c-6.24-8.88-10.24-18.62-13.05-28.82a79.66,79.66,0,0,0-37.84,44.71c-.4,1.19-.8,2.39-1.15,3.59,10.52,18,26.24,34.06,47.36,41.51,22.16,7.81,46.4,8,69.87,3.7l.08,1.45,1,18.88,37.22-20,6.52-3.5,20.89-11.23.17-.3Z"/><path class="cls-1" d="M1082.76,84.27c.23-.42.46-.85.68-1.27C1083.21,83.43,1083,83.85,1082.76,84.27Z"/><path class="cls-1" d="M1080.78,87.73l.69-1.16Z"/><path class="cls-1" d="M1076.44,94.2l.55-.75Z"/><path class="cls-1" d="M1086.29,76.94c.19-.44.38-.89.56-1.33C1086.66,76.06,1086.48,76.5,1086.29,76.94Z"/><path class="cls-1" d="M1078.67,91l.65-1Z"/><path class="cls-1" d="M1084.6,80.68c.21-.44.42-.88.63-1.33C1085,79.8,1084.81,80.24,1084.6,80.68Z"/><path class="cls-1" d="M1074.09,97.24l.4-.49Z"/><path class="cls-1" d="M1071.63,100.15l.2-.23Z"/><path class="cls-2" d="M1086.29,76.94c-.34.81-.69,1.61-1.06,2.41-.21.45-.42.89-.63,1.33q-.56,1.17-1.16,2.32c-.22.43-.45.85-.68,1.27q-.63,1.16-1.29,2.29l-.69,1.16q-.71,1.18-1.46,2.33l-.65,1q-.82,1.22-1.68,2.42l-.55.75q-1,1.29-2,2.54l-.4.49q-1.11,1.36-2.27,2.68l-.2.23a85.63,85.63,0,0,1-23.37,18.51l-1.25.68a101.17,101.17,0,0,1-31.16,96.27,100.93,100.93,0,0,0,72.29-143.36c-.1.28-.22.56-.32.84-.31.85-.63,1.69-1,2.52C1086.66,76.06,1086.48,76.5,1086.29,76.94Z"/><path class="cls-3" d="M1087.81,73.09c-.31.85-.63,1.69-1,2.52C1087.18,74.78,1087.5,73.93,1087.81,73.09Z"/><path class="cls-3" d="M1081.47,86.57q.66-1.14,1.29-2.29Q1082.13,85.43,1081.47,86.57Z"/><path class="cls-3" d="M1083.44,83q.6-1.15,1.16-2.32C1084.22,81.46,1083.83,82.24,1083.44,83Z"/><path class="cls-3" d="M1071.83,99.92q1.16-1.32,2.27-2.68Q1073,98.61,1071.83,99.92Z"/><path class="cls-3" d="M1079.32,90.05q.75-1.15,1.46-2.33Q1080.07,88.9,1079.32,90.05Z"/><path class="cls-3" d="M1077,93.45q.86-1.19,1.68-2.42Q1077.85,92.26,1077,93.45Z"/><path class="cls-3" d="M1071.63,100.15A86,86,0,0,1,1047,119.28v0l1.25-.68A85.63,85.63,0,0,0,1071.63,100.15Z"/><path class="cls-3" d="M1085.23,79.35c.37-.8.72-1.6,1.06-2.41C1085.94,77.75,1085.59,78.56,1085.23,79.35Z"/><path class="cls-3" d="M1074.49,96.75q1-1.25,2-2.54Q1075.49,95.5,1074.49,96.75Z"/><path class="cls-4" d="M915.44,40.9l5,2,5.77,2.28,21.24,8.72,10.92,4.57,11.17,4.65-.75-19.86A59,59,0,0,1,988.54,48c.35.15,1,.3,1,.45q5.85,2.69,11.71,6.1A93.09,93.09,0,0,1,1032.49,85c6.24,8.88,10.24,18.62,13.05,28.82a79.66,79.66,0,0,0,37.84-44.71c.4-1.19.8-2.39,1.15-3.59-10.52-18-26.24-34.06-47.36-41.51-22.16-7.81-46.4-8-69.87-3.7l-.08-1.45L966.26,0,929,20l-6.52,3.5L901.63,34.74l-.17.3Z"/><path class="cls-2" d="M116.8,146.21q7.3,0,10.63-2.22a7.09,7.09,0,0,0,3.33-6.25,7.43,7.43,0,0,0-1.13-4.14,11.12,11.12,0,0,0-3.22-3.13,28.13,28.13,0,0,0-5.1-2.6q-3-1.2-6.87-2.36T107,122.77a25.55,25.55,0,0,1-6.34-3.71,17.35,17.35,0,0,1-4.4-5.29,15.37,15.37,0,0,1-1.66-7.41,16.66,16.66,0,0,1,7-14.2q7-5.15,19-5.15A49.91,49.91,0,0,1,133,88.41a40.79,40.79,0,0,1,8.54,3l-4.19,9.82a34.46,34.46,0,0,0-8-2.79,41.3,41.3,0,0,0-9-1q-5.48,0-8.54,2a6.43,6.43,0,0,0-3.06,5.68,6.87,6.87,0,0,0,1,3.8,9.82,9.82,0,0,0,2.9,2.84,26.17,26.17,0,0,0,4.4,2.31q2.52,1.06,5.53,2,5.26,1.73,9.4,3.51a26.92,26.92,0,0,1,7,4.23,16.63,16.63,0,0,1,4.35,5.77,19.43,19.43,0,0,1,1.5,8,16.05,16.05,0,0,1-7.14,14q-7.14,5-20.89,5a61.57,61.57,0,0,1-8.43-.53,59.76,59.76,0,0,1-6.77-1.3,49.85,49.85,0,0,1-5.1-1.59,32.52,32.52,0,0,1-3.44-1.49l4-9.91a48.85,48.85,0,0,0,7.84,2.89A42.88,42.88,0,0,0,116.8,146.21Z"/><path class="cls-2" d="M216.67,88.55V99H193.8v56.21H180.16V99H157.29V88.55Z"/><path class="cls-2" d="M278.42,155.25q-1.51-3.95-3.12-7.8t-3.12-7.89H240.74q-1.51,4-3.07,7.94t-3.07,7.75H220.54q4.18-10.68,7.94-19.73t7.35-17.13q3.59-8.08,7.13-15.4t7.3-14.44h12.92q3.76,7.12,7.3,14.44t7.14,15.4q3.6,8.09,7.41,17.13t8,19.73Zm-22-53.8q-2.47,5.1-5.64,12.42t-6.6,15.88H268.7q-3.44-8.57-6.66-16T256.46,101.45Z"/><path class="cls-2" d="M356.17,88.55V99H333.3v56.21H319.66V99H296.79V88.55Z"/><path class="cls-4" d="M473.22,88.55V99H450.35v56.21H436.71V99H413.84V88.55Z"/><path class="cls-4" d="M512.1,87.88q16.11,0,24.65,5.29t8.54,16.17q0,13.57-14.93,18.38,2,2.21,4.62,5.39t5.26,6.88q2.68,3.7,5.15,7.6t4.4,7.65H534.65q-2-3.46-4.4-7t-4.78-6.83q-2.42-3.32-4.78-6.26t-4.4-5.25q-1.5.1-2.58.1h-8.59v25.22H491.59V89.52a80.6,80.6,0,0,1,10.52-1.3Q507.69,87.88,512.1,87.88Zm1,10.49q-4.3,0-7.95.29v21.56H511a69.21,69.21,0,0,0,8.7-.48A19.85,19.85,0,0,0,526,118a9,9,0,0,0,3.81-3.37,10.22,10.22,0,0,0,1.29-5.39,9.82,9.82,0,0,0-1.29-5.2,9.14,9.14,0,0,0-3.7-3.37,18.89,18.89,0,0,0-5.75-1.78A46.67,46.67,0,0,0,513.07,98.37Z"/><path class="cls-4" d="M620.56,155.25q-1.51-3.95-3.12-7.8t-3.12-7.89H582.88q-1.51,4-3.07,7.94t-3.07,7.75H562.68q4.18-10.68,7.94-19.73T578,118.39q3.6-8.08,7.13-15.4t7.3-14.44h12.92q3.76,7.12,7.3,14.44t7.14,15.4q3.6,8.09,7.41,17.13t8,19.73Zm-22-53.8q-2.47,5.1-5.64,12.42t-6.61,15.88h24.49q-3.44-8.57-6.66-16T598.6,101.45Z"/><path class="cls-4" d="M702.72,155.25q-3.65-5.49-8.16-11.79t-9.34-12.71q-4.83-6.4-9.83-12.42t-9.5-10.83v47.74H652.56V88.55h11.06q4.3,4,9.24,9.58t9.93,11.5q5,6,9.66,12t8.32,11.21V88.55h13.42v66.7Z"/><path class="cls-4" d="M758.13,146.21q7.3,0,10.63-2.22a7.09,7.09,0,0,0,3.33-6.25A7.43,7.43,0,0,0,771,133.6a11.13,11.13,0,0,0-3.22-3.13,28.18,28.18,0,0,0-5.1-2.6q-3-1.2-6.87-2.36t-7.46-2.74a25.59,25.59,0,0,1-6.34-3.71,17.34,17.34,0,0,1-4.4-5.29,15.34,15.34,0,0,1-1.67-7.41,16.66,16.66,0,0,1,7-14.2q7-5.15,19-5.15a49.91,49.91,0,0,1,12.4,1.39,40.79,40.79,0,0,1,8.54,3l-4.19,9.82a34.43,34.43,0,0,0-8-2.79,41.29,41.29,0,0,0-9-1q-5.48,0-8.54,2a6.43,6.43,0,0,0-3.06,5.68,6.86,6.86,0,0,0,1,3.8,9.81,9.81,0,0,0,2.9,2.84,26.21,26.21,0,0,0,4.4,2.31q2.52,1.06,5.53,2,5.26,1.73,9.4,3.51a26.91,26.91,0,0,1,7,4.23,16.65,16.65,0,0,1,4.35,5.77,19.42,19.42,0,0,1,1.5,8,16,16,0,0,1-7.14,14q-7.14,5-20.89,5a61.57,61.57,0,0,1-8.43-.53,59.78,59.78,0,0,1-6.77-1.3,50,50,0,0,1-5.1-1.59,32.62,32.62,0,0,1-3.44-1.49l4-9.91a49,49,0,0,0,7.84,2.89A42.89,42.89,0,0,0,758.13,146.21Z"/><path class="cls-4" d="M806.13,155.25V88.55h47v10.3H819.66v17h29.75v10.3H819.66v29.07Z"/><path class="cls-4" d="M873.36,155.25V88.55h47.79v10.3H886.89v16.46h30.5v10.11h-30.5V145h36.84v10.3Z"/><path class="cls-4" d="M964.85,87.88q16.11,0,24.65,5.29T998,109.34q0,13.57-14.93,18.38,2,2.21,4.62,5.39T993,140q2.68,3.7,5.15,7.6t4.4,7.65H987.4q-2-3.46-4.4-7t-4.78-6.83q-2.42-3.32-4.78-6.26t-4.4-5.25q-1.51.1-2.58.1h-8.59v25.22H944.34V89.52a80.64,80.64,0,0,1,10.52-1.3Q960.45,87.88,964.85,87.88Zm1,10.49q-4.3,0-7.95.29v21.56h5.91a69.22,69.22,0,0,0,8.7-.48,19.85,19.85,0,0,0,6.28-1.73,9,9,0,0,0,3.81-3.37,10.21,10.21,0,0,0,1.29-5.39,9.81,9.81,0,0,0-1.29-5.2,9.14,9.14,0,0,0-3.7-3.37,18.91,18.91,0,0,0-5.75-1.78A46.7,46.7,0,0,0,965.82,98.37Z"/><path class="cls-2" d="M360.53,156.06l31.35-69.53L399.33,89,368,158.45Z"/></svg>